# xmcd
#
# Track frame offsets: 
#        150
#        12588
#        27173
#        35048
#        46300
#        65748
#        81283
#        93400
#        105480
#        120173
#        133920
#
# Disc length: 2193 seconds
#
# Revision: 3
# Processed by: cddbd v1.5.2PL0 Copyright (c) Steve Scherf et al.
# Submitted via: ExactAudioCopy v0.99pb4
#
DISCID=90088f0b
DTITLE=Katia and Marielle Labeque - Gladrags
DYEAR=1983
DGENRE=Instrumental
TTITLE0=Honky-Tonk
TTITLE1=The Entertainer
TTITLE2=Rialto Ripples
TTITLE3=Antoinette
TTITLE4=Magnetic Rag
TTITLE5=Carolina Shout
TTITLE6=Maple Leaf Rag
TTITLE7=Elite Syncopations
TTITLE8=Strenuous Life
TTITLE9=Stop-Time
TTITLE10=Bethena
EXTD=Katia and marielle Labeque performing on two pianos compositions by
EXTD=\nScott Joplin, George Gershwin and Will Donaldson, James P. Johnso
EXTD=n\narranged by Francois Jeanneau
EXTT0=BILLY MAYERL: A Rhuthmical Absurdity. Slow Fox Trot (1928)
EXTT1=SCOTT JOPLIN: Ragtime Two Step (1902)
EXTT2=GEORGE GERSHWIN and WILL DONALDSON: Rag (1916)
EXTT3=SCOTT JOPLIN: March and Two Step (1906)
EXTT4=SCOTT JOPLIN: (1914)
EXTT5=JAMES P. JOHNSON: Fast Jump (1926)
EXTT6=SCOTT JOPLIN: (1899)
EXTT7=SCOTT JOPLIN: (1902)
EXTT8=SCOTT JOPLIN: A Ragtime Two Step (1902)
EXTT9=SCOTT JOPLIN: (1910)
EXTT10=SCOTT JOPLIN: A Concert Waltz (1905)
PLAYORDER=
